<mxfile host="app.diagrams.net" modified="2023-10-11T02:41:10.053Z" agent="Mozilla/5.0 (Windows NT 10.0; Win64; x64) AppleWebKit/537.36 (KHTML, like Gecko) Chrome/117.0.0.0 Safari/537.36" version="22.0.4" etag="oF54TztxbITl1fMwS8s4" type="github">
  <diagram name="Page-1" id="Ky8LChACpuCHxpWqD7bf">
    <mxGraphModel>
      <root>
        <mxCell id="0" />
        <mxCell id="1" parent="0" />
      </root>
    </mxGraphModel>
  </diagram>
</mxfile>
